<?xml version="1.0" encoding="utf-8"?>
<!-- Generator: Adobe Illustrator 16.0.0, SVG Export Plug-In . SVG Version: 6.00 Build 0)  -->
<!DOCTYPE svg PUBLIC "-//W3C//DTD SVG 1.1//EN" "http://www.w3.org/Graphics/SVG/1.1/DTD/svg11.dtd">
<svg version="1.1" id="Layer_1" xmlns="http://www.w3.org/2000/svg" xmlns:xlink="http://www.w3.org/1999/xlink" x="0px" y="0px"
	 width="64px" height="64px" viewBox="0 0 64 64" enable-background="new 0 0 64 64" xml:space="preserve">
<g>
	<g>
		<path fill="#FFFFFF" d="M28.758,24.929c-2.571,0-4.653,2.084-4.653,4.654c0,2.566,2.082,4.653,4.653,4.653
			c2.57,0,4.652-2.086,4.652-4.653C33.41,27.013,31.328,24.929,28.758,24.929z M28.758,31.896c-1.279,0-2.313-1.038-2.313-2.314
			c0-1.277,1.035-2.314,2.313-2.314c1.278,0,2.312,1.038,2.312,2.314S30.036,31.896,28.758,31.896z"/>
	</g>
	<g>
		<path fill="#FFFFFF" d="M28.758,17.805c-6.505,0-11.779,5.273-11.779,11.778c0,6.504,5.273,11.778,11.779,11.778
			c6.504,0,11.776-5.274,11.776-11.778C40.534,23.078,35.262,17.805,28.758,17.805z M28.758,38.652
			c-5.009,0-9.073-4.062-9.073-9.069c0-5.011,4.063-9.073,9.073-9.073c5.006,0,9.071,4.062,9.071,9.073
			C37.829,34.59,33.764,38.652,28.758,38.652z"/>
	</g>
	<path fill="#FFFFFF" d="M62.977,49.662c0.037,0.02,0.16,0.086,0.301,0.179H63.26L62.977,49.662z"/>
	<path fill="#FFFFFF" d="M63.296,49.857L63.26,49.84h0.018C63.277,49.852,63.29,49.852,63.296,49.857z"/>
	<g>
		<path fill="#FFFFFF" d="M63.458,49.984l-0.16-0.125c-0.008-0.01-0.021-0.01-0.021-0.02H63.26l-0.283-0.179h-0.011l-0.01-0.011
			L43.251,37.809l-0.252-0.149c-0.534-0.287-1.743-0.753-1.743,1.017v23.719c0,0,0.037,1.871,1.737,0.896c0.002,0,0.004,0,0.004,0
			L63.25,51.686v-0.008c0.018-0.01,0.037-0.027,0.064-0.037c0.067-0.048,0.162-0.104,0.267-0.19
			C64.291,50.873,63.875,50.325,63.458,49.984z M58.117,51.414c-0.062,0.05-0.117,0.082-0.156,0.111
			c-0.018,0.006-0.029,0.018-0.04,0.021v0.009l-12.046,6.896h-0.002c-1.014,0.581-1.035-0.533-1.035-0.533V43.812
			c0-1.053,0.721-0.774,1.039-0.603l0.148,0.09l11.721,7.044l0.004,0.006h0.004l0.169,0.105h0.015c0,0.006,0.006,0.006,0.013,0.013
			l0.095,0.071C58.29,50.742,58.539,51.068,58.117,51.414z"/>
	</g>
	<g>
		<path fill="#FFFFFF" d="M56.251,40.275c1.319-3.315,2.091-6.907,2.091-10.692c0-16.101-13.053-29.153-29.153-29.153
			c-16.102,0-29.153,13.053-29.153,29.153c0,16.101,13.052,29.151,29.153,29.151c2.835,0,5.561-0.438,8.15-1.192
			c0.609-0.233,0.845-0.606,0.915-0.928v-0.921c0-1.59-2.184-1.098-2.184-1.098l0,0c-2.189,0.613-4.496,0.95-6.883,0.95
			c-14.338,0-25.963-11.625-25.963-25.964S14.849,3.618,29.187,3.618c14.338,0,25.965,11.624,25.965,25.963
			c0,2.856-0.486,5.589-1.348,8.157c0.004,0,0.021-0.006,0.021-0.006s-0.722,2.094,0.128,2.631l0.663,0.414
			C54.628,40.786,55.663,41.211,56.251,40.275z"/>
	</g>
	<path fill="#FFFFFF" d="M26.078,7.335c0,0,8.035-1.215,14.865,3.414c2.789,1.905,6.83,5.155,9.225,11.886
		c0.296,1.28-0.59,1.643-0.852,1.773c-0.266,0.13-1.678,0.459-2.139-0.789c-0.455-1.247-5.349-14.018-18.908-13.295
		c-2.135,0.229-2.987,0.492-3.644-0.591C24.331,8.648,24.414,7.695,26.078,7.335z"/>
	<path fill="#FFFFFF" d="M6.941,34.427c0,0,1.634,7.964,8.337,12.774c2.749,1.961,7.196,4.631,14.34,4.554
		c1.303-0.164,1.335-1.122,1.37-1.411c0.031-0.293-0.147-1.732-1.478-1.732c-1.329,0-15.002-0.182-19.008-13.155
		c-0.521-2.083-0.568-2.976-1.812-3.218C7.57,32.334,6.705,32.74,6.941,34.427z"/>
</g>
</svg>
